<svg xmlns="http://www.w3.org/2000/svg" xmlns:xlink="http://www.w3.org/1999/xlink" id="b5667ae9-32f0-452e-b9fa-ac889b15b239" data-name="Layer 1" viewBox="0 0 310.2954 30.8584"><defs><clipPath id="a5389348-8f6f-4828-98a1-49485999b6f2" transform="translate(-0.021 -0.2813)"><rect x="129" y="20" width="4" height="4" style="fill:none"></rect></clipPath><clipPath id="be746657-e76a-4692-9a57-33335b4d0979" transform="translate(-0.021 -0.2813)"><rect width="0.101" height="0.4" style="fill:none"></rect></clipPath></defs><path d="M1.4038,10.127h6.561a11.9886,11.9886,0,0,1,5.3731,1.1342,8.2354,8.2354,0,0,1,3.5371,3.24,9.6069,9.6069,0,0,1,1.2422,4.9682q0,4.6971-2.7407,7.1148Q12.6357,28.9994,7.749,29H1.4038Zm6.561,15.4443a5.8192,5.8192,0,0,0,4.4283-1.62,6.2456,6.2456,0,0,0,1.539-4.482,6.7343,6.7343,0,0,0-.6753-3.0512,4.95,4.95,0,0,0-1.9707-2.106,5.95,5.95,0,0,0-3.0512-.7558H5.5078V25.5713Z" transform="translate(-0.021 -0.2813)" style="fill:#9aa8ba"></path><path d="M20.1953,16.04h3.9424v1.8628a4.8865,4.8865,0,0,1,2.187-1.4443,9.4662,9.4662,0,0,1,3.186-.5v3.105a8.7892,8.7892,0,0,0-3.2807.5669,3.4418,3.4418,0,0,0-1.9575,1.7285V29H20.1953Z" transform="translate(-0.021 -0.2813)" style="fill:#9aa8ba"></path><path d="M30.9551,28.5684a1.4441,1.4441,0,0,1-.4458-1.08,1.5073,1.5073,0,0,1,.46-1.1074,1.4773,1.4773,0,0,1,1.0795-.459,1.5678,1.5678,0,0,1,1.5664,1.5664,1.4225,1.4225,0,0,1-.4594,1.08A1.557,1.557,0,0,1,32.0483,29,1.51,1.51,0,0,1,30.9551,28.5684Z" transform="translate(-0.021 -0.2813)" style="fill:#9aa8ba"></path><path d="M35.6929,10.127h7.938a7.4877,7.4877,0,0,1,5.13,1.6875,5.915,5.915,0,0,1,1.917,4.6845,5.9079,5.9079,0,0,1-1.9038,4.7246,7.5885,7.5885,0,0,1-5.1435,1.6475h-3.834V29h-4.104Zm7.3442,9.3149q3.4827,0,3.4829-2.9429a2.6016,2.6016,0,0,0-.9316-2.2949,4.4032,4.4032,0,0,0-2.5513-.6479h-3.24v5.8857Z" transform="translate(-0.021 -0.2813)" style="fill:#9aa8ba"></path><path d="M51.8525,28.2031a3.9767,3.9767,0,0,1-1.4985-3.28,4.1488,4.1488,0,0,1,1.4312-3.3614,6.1266,6.1266,0,0,1,4.05-1.2011,9.875,9.875,0,0,1,2.2139.2421,7.5525,7.5525,0,0,1,1.8628.6758v-.3242a1.9781,1.9781,0,0,0-.8638-1.7822,4.8991,4.8991,0,0,0-2.646-.5669,10.6115,10.6115,0,0,0-4.374.8911v-2.97a10.5151,10.5151,0,0,1,2.2407-.6343,15.0234,15.0234,0,0,1,2.7544-.2568A8.0324,8.0324,0,0,1,62.2612,17.08a4.9727,4.9727,0,0,1,1.7281,4.0366V29h-3.834V27.8115a6.0982,6.0982,0,0,1-4.4282,1.5938A6.004,6.004,0,0,1,51.8525,28.2031Zm6.7906-1.876a3.0559,3.0559,0,0,0,1.269-1.0527V23.9775a5.3443,5.3443,0,0,0-3.0239-.9179,2.7888,2.7888,0,0,0-1.7412.4726,1.6553,1.6553,0,0,0-.6079,1.3907,1.5718,1.5718,0,0,0,.5942,1.3232,2.7291,2.7291,0,0,0,1.7012.459A4.2264,4.2264,0,0,0,58.6431,26.3271Z" transform="translate(-0.021 -0.2813)" style="fill:#9aa8ba"></path><path d="M66.5,16.04h3.9424v1.8628a4.8865,4.8865,0,0,1,2.187-1.4443,9.4658,9.4658,0,0,1,3.186-.5v3.105a8.7888,8.7888,0,0,0-3.2807.5669,3.442,3.442,0,0,0-1.9576,1.7285V29H66.5Z" transform="translate(-0.021 -0.2813)" style="fill:#9aa8ba"></path><path d="M77.3535,9.0469h4.0772V21.5215L86.1558,16.04h4.7251L85.4,22.3584,91.5557,29H86.8306l-5.4-5.832V29H77.3535Z" transform="translate(-0.021 -0.2813)" style="fill:#9aa8ba"></path><path d="M95.2275,27.6094a6.2185,6.2185,0,0,1-2.1333-5.0352A6.7782,6.7782,0,0,1,94.998,17.498a7.456,7.456,0,0,1,5.4405-1.8632,8.2876,8.2876,0,0,1,3.9419.8642,5.8854,5.8854,0,0,1,2.457,2.39,7.04,7.04,0,0,1,.8369,3.4424v1.6464H96.9824q.4314,2.4859,4.6441,2.4844a15.8573,15.8573,0,0,0,2.5649-.2158,11.4389,11.4389,0,0,0,2.2949-.5938v2.8614a10.6179,10.6179,0,0,1-2.43.6484,18.3578,18.3578,0,0,1-2.97.2432A8.8175,8.8175,0,0,1,95.2275,27.6094Zm8.586-6.2774a2.6621,2.6621,0,0,0-.9722-2.0117,3.8242,3.8242,0,0,0-2.457-.7153,3.726,3.726,0,0,0-2.43.729,2.6778,2.6778,0,0,0-.9722,1.998Z" transform="translate(-0.021 -0.2813)" style="fill:#9aa8ba"></path><path d="M109.7529,16.04h3.9424v1.8628a4.8865,4.8865,0,0,1,2.187-1.4443,9.4664,9.4664,0,0,1,3.1861-.5v3.105a8.7894,8.7894,0,0,0-3.2808.5669,3.4418,3.4418,0,0,0-1.9575,1.7285V29h-4.0772Z" transform="translate(-0.021 -0.2813)" style="fill:#9aa8ba"></path><g style="clip-path:url(#a5389348-8f6f-4828-98a1-49485999b6f2)"><rect x="123.979" y="14.7188" width="14" height="14" style="fill:#9aa8ba"></rect></g><path d="M146.0952,26.46a5.839,5.839,0,0,1-2.3491-2.295,6.8371,6.8371,0,0,1-.8462-3.4472,6.8382,6.8382,0,0,1,.8462-3.4468,5.9026,5.9026,0,0,1,2.3491-2.3042,7.01,7.01,0,0,1,3.4107-.8189,6.6986,6.6986,0,0,1,4.32,1.3682v1.3677a6.059,6.059,0,0,0-4.2124-1.458,5.6862,5.6862,0,0,0-2.7359.6484,4.6971,4.6971,0,0,0-1.89,1.8447,5.5441,5.5441,0,0,0-.6836,2.7989,5.4811,5.4811,0,0,0,.6929,2.7988,4.7579,4.7579,0,0,0,1.8989,1.8457,5.6535,5.6535,0,0,0,2.7178.6475,7.488,7.488,0,0,0,2.4121-.3594,5.4974,5.4974,0,0,0,1.9619-1.1885v1.3858a6.5214,6.5214,0,0,1-4.4819,1.4218A7.0719,7.0719,0,0,1,146.0952,26.46Z" transform="translate(-0.021 -0.2813)" style="fill:#9aa8ba"></path><path d="M156.0215,13.6982h1.3867V27h-1.3867Z" transform="translate(-0.021 -0.2813)" style="fill:#9aa8ba"></path><path d="M160.0537,16.2358a.8642.8642,0,0,1,.6123-1.476.8633.8633,0,0,1,.6211.2524.848.848,0,0,1,0,1.2236.8609.8609,0,0,1-.6211.252A.8316.8316,0,0,1,160.0537,16.2358Zm-.0713,2.1241h1.3858V27h-1.3858Z" transform="translate(-0.021 -0.2813)" style="fill:#9aa8ba"></path><path d="M163.9414,18.36h1.3506v1.2959a3.7548,3.7548,0,0,1,1.5391-1.188,4.9856,4.9856,0,0,1,1.9345-.378,3.3165,3.3165,0,0,1,2.5469.9,3.3972,3.3972,0,0,1,.8369,2.4121V27h-1.3857V21.5283a2.49,2.49,0,0,0-.54-1.7192,2.212,2.212,0,0,0-1.7275-.603,3.6075,3.6075,0,0,0-3.168,1.8V27h-1.3867Z" transform="translate(-0.021 -0.2813)" style="fill:#9aa8ba"></path><path d="M174.7051,16.2358a.8642.8642,0,0,1,.6123-1.476.8634.8634,0,0,1,.6211.2524.8482.8482,0,0,1,0,1.2236.861.861,0,0,1-.6211.252A.8313.8313,0,0,1,174.7051,16.2358Zm-.0713,2.1241H176.02V27h-1.3857Z" transform="translate(-0.021 -0.2813)" style="fill:#9aa8ba"></path><path d="M180.5459,26.7207a4.0438,4.0438,0,0,1-1.7012-1.584,5.1349,5.1349,0,0,1,.01-4.8779,4.1172,4.1172,0,0,1,1.7187-1.6109,5.408,5.408,0,0,1,2.4834-.5581,7.6045,7.6045,0,0,1,1.7461.18,4.1451,4.1451,0,0,1,1.3506.5762v1.1694a5.0027,5.0027,0,0,0-2.9707-.8095,3.6332,3.6332,0,0,0-2.5732.9179,3.3362,3.3362,0,0,0-.99,2.5742,3.3056,3.3056,0,0,0,.99,2.5645,3.5779,3.5779,0,0,0,2.5195.9092,6.2477,6.2477,0,0,0,1.71-.2158,5.2461,5.2461,0,0,0,1.44-.6661v1.17a4.2416,4.2416,0,0,1-1.4131.6211,8.04,8.04,0,0,1-1.8633.1884A5.3774,5.3774,0,0,1,180.5459,26.7207Z" transform="translate(-0.021 -0.2813)" style="fill:#9aa8ba"></path><path d="M188.7725,26.4873a2.692,2.692,0,0,1-.9082-2.1514,2.7385,2.7385,0,0,1,.8818-2.1865,3.7869,3.7869,0,0,1,2.5557-.7656,6.3736,6.3736,0,0,1,3.2216.7744V21.51a2.1562,2.1562,0,0,0-.666-1.7369,3.2112,3.2112,0,0,0-2.1054-.5668,6.8741,6.8741,0,0,0-2.8262.5761v-1.17a6.171,6.171,0,0,1,1.3681-.3779,9.2807,9.2807,0,0,1,1.584-.1441,4.3211,4.3211,0,0,1,3.042.9273,3.3424,3.3424,0,0,1,.99,2.5649V27h-1.2959V25.8838A4.095,4.095,0,0,1,191.248,27.27,3.67,3.67,0,0,1,188.7725,26.4873Zm4.5722-.7383a2.6626,2.6626,0,0,0,1.1787-1.0888V23.2744a5.69,5.69,0,0,0-1.3945-.6035,5.9215,5.9215,0,0,0-1.5566-.1885,2.7521,2.7521,0,0,0-1.7735.459,1.713,1.713,0,0,0-.5488,1.3945q0,1.8,2.34,1.8A3.9061,3.9061,0,0,0,193.3447,25.749Z" transform="translate(-0.021 -0.2813)" style="fill:#9aa8ba"></path><path d="M198.2129,13.6982H199.6V27h-1.3867Z" transform="translate(-0.021 -0.2813)" style="fill:#9aa8ba"></path><path d="M208.707,14.418h4.6621a4.6372,4.6372,0,0,1,3.087.936,3.4258,3.4258,0,0,1,1.1074,2.772,3.4075,3.4075,0,0,1-1.0987,2.7724,4.6956,4.6956,0,0,1-3.0957.918h-3.2578V27H208.707Zm4.5547,6.21a3.6159,3.6159,0,0,0,2.124-.5488,2.2355,2.2355,0,0,0,.7735-1.9531,2.2583,2.2583,0,0,0-.7735-1.9712,3.62,3.62,0,0,0-2.124-.5488h-3.15v5.0219Z" transform="translate(-0.021 -0.2813)" style="fill:#9aa8ba"></path><path d="M219.6152,27.0273a4.9047,4.9047,0,0,1-1.5127-.6035v-1.17a6.7927,6.7927,0,0,0,3.295.918,3.1144,3.1144,0,0,0,1.61-.3145,1.0463,1.0463,0,0,0,.4951-.9453,1.22,1.22,0,0,0-.2158-.7646,1.7793,1.7793,0,0,0-.72-.4952,12.7266,12.7266,0,0,0-1.5664-.5039,9.1793,9.1793,0,0,1-1.6651-.6035,2.4177,2.4177,0,0,1-.9453-.8008,2.1985,2.1985,0,0,1-.3232-1.2421,2.0141,2.0141,0,0,1,.9443-1.7911,4.51,4.51,0,0,1,2.5117-.6211,7.9245,7.9245,0,0,1,1.5928.1534,4.613,4.613,0,0,1,1.251.4228v1.17a4.9245,4.9245,0,0,0-1.26-.4589,6.776,6.776,0,0,0-1.53-.1709,3.2728,3.2728,0,0,0-1.5839.3061,1.0507,1.0507,0,0,0-.54.99,1.1807,1.1807,0,0,0,.1885.72,1.62,1.62,0,0,0,.7022.459,15.8277,15.8277,0,0,0,1.6474.5136,5.5238,5.5238,0,0,1,2.2588,1.0528,2.18,2.18,0,0,1,.6387,1.665,2.03,2.03,0,0,1-.8545,1.7275,4.3869,4.3869,0,0,1-2.6016.63A7.5005,7.5005,0,0,1,219.6152,27.0273Z" transform="translate(-0.021 -0.2813)" style="fill:#9aa8ba"></path><path d="M226.0771,30.4023V29.2861a3.0375,3.0375,0,0,0,.5665.126,4.3931,4.3931,0,0,0,.621.0537,1.4644,1.4644,0,0,0,.99-.3242,2.7848,2.7848,0,0,0,.6836-1.08l.4687-1.1152-3.834-8.5864h1.4756l3.0957,6.9839,2.8623-6.9839h1.4756l-3.9951,9.7924a4.74,4.74,0,0,1-1.18,1.8262,2.5817,2.5817,0,0,1-1.7549.586A6.1276,6.1276,0,0,1,226.0771,30.4023Z" transform="translate(-0.021 -0.2813)" style="fill:#9aa8ba"></path><path d="M237.3,26.7207a4.0438,4.0438,0,0,1-1.7012-1.584,5.1349,5.1349,0,0,1,.01-4.8779,4.1172,4.1172,0,0,1,1.7187-1.6109,5.408,5.408,0,0,1,2.4834-.5581,7.6045,7.6045,0,0,1,1.7461.18,4.1451,4.1451,0,0,1,1.3506.5762v1.1694a5.0027,5.0027,0,0,0-2.9707-.8095,3.6332,3.6332,0,0,0-2.5732.9179,3.3362,3.3362,0,0,0-.99,2.5742,3.3056,3.3056,0,0,0,.99,2.5645,3.5779,3.5779,0,0,0,2.5195.9092,6.2472,6.2472,0,0,0,1.71-.2158,5.2461,5.2461,0,0,0,1.44-.6661v1.17a4.2416,4.2416,0,0,1-1.4131.6211,8.04,8.04,0,0,1-1.8633.1884A5.3774,5.3774,0,0,1,237.3,26.7207Z" transform="translate(-0.021 -0.2813)" style="fill:#9aa8ba"></path><path d="M245.0664,13.6982h1.3867V19.62a4.1828,4.1828,0,0,1,3.4375-1.53,3.3165,3.3165,0,0,1,2.5469.9,3.3972,3.3972,0,0,1,.8369,2.4121V27h-1.3857V21.5283a2.49,2.49,0,0,0-.54-1.7192,2.212,2.212,0,0,0-1.7275-.603,3.6075,3.6075,0,0,0-3.168,1.8V27h-1.3867Z" transform="translate(-0.021 -0.2813)" style="fill:#9aa8ba"></path><path d="M257.2441,26.7119a4.05,4.05,0,0,1-1.6923-1.5928,5.1139,5.1139,0,0,1,.0087-4.833,4.2171,4.2171,0,0,1,1.7012-1.62,5.6041,5.6041,0,0,1,4.95,0,4.2222,4.2222,0,0,1,1.7012,1.62,5.1143,5.1143,0,0,1,.0088,4.833,4.05,4.05,0,0,1-1.6924,1.5928,5.85,5.85,0,0,1-4.9854,0Zm4.9678-1.4853a3.4531,3.4531,0,0,0,.9268-2.5284,3.4774,3.4774,0,0,0-.9268-2.5468,3.713,3.713,0,0,0-4.95,0,3.4778,3.4778,0,0,0-.9267,2.5468,3.4534,3.4534,0,0,0,.9267,2.5284,3.713,3.713,0,0,0,4.95,0Z" transform="translate(-0.021 -0.2813)" style="fill:#9aa8ba"></path><path d="M266.5576,13.6982h1.3867V27h-1.3867Z" transform="translate(-0.021 -0.2813)" style="fill:#9aa8ba"></path><path d="M272.2734,26.7119a4.05,4.05,0,0,1-1.6923-1.5928,5.1139,5.1139,0,0,1,.0087-4.833,4.2165,4.2165,0,0,1,1.7012-1.62,5.6041,5.6041,0,0,1,4.95,0,4.2222,4.2222,0,0,1,1.7012,1.62,5.1143,5.1143,0,0,1,.0088,4.833,4.05,4.05,0,0,1-1.6924,1.5928,5.85,5.85,0,0,1-4.9854,0Zm4.9678-1.4853a3.4531,3.4531,0,0,0,.9268-2.5284,3.4774,3.4774,0,0,0-.9268-2.5468,3.713,3.713,0,0,0-4.95,0,3.4778,3.4778,0,0,0-.9267,2.5468,3.4534,3.4534,0,0,0,.9267,2.5284,3.713,3.713,0,0,0,4.95,0Z" transform="translate(-0.021 -0.2813)" style="fill:#9aa8ba"></path><path d="M284.36,30.9961a6.1833,6.1833,0,0,1-1.4043-.3965V29.43a7.502,7.502,0,0,0,3.0957.6123,3.654,3.654,0,0,0,2.6015-.8008A3.2057,3.2057,0,0,0,289.49,26.82V25.542a4.1562,4.1562,0,0,1-3.708,1.7275,4.7849,4.7849,0,0,1-2.3222-.5664,4.1,4.1,0,0,1-1.6377-1.6113,5.1585,5.1585,0,0,1,0-4.8057,4.2,4.2,0,0,1,1.62-1.62,4.6231,4.6231,0,0,1,2.3037-.5762,5.3089,5.3089,0,0,1,2.2139.4053,4.1048,4.1048,0,0,1,1.5664,1.3228V18.36h1.35v8.28a4.4557,4.4557,0,0,1-1.1875,3.3487,5.0505,5.0505,0,0,1-3.6367,1.1513A9.8846,9.8846,0,0,1,284.36,30.9961Zm3.87-5.4717a3.2738,3.2738,0,0,0,1.26-1.7822V21.6a3.266,3.266,0,0,0-1.2783-1.7637,3.7528,3.7528,0,0,0-2.1777-.63,3.4782,3.4782,0,0,0-1.7373.4409,3.2108,3.2108,0,0,0-1.2324,1.2329,3.915,3.915,0,0,0,0,3.6455,3.1617,3.1617,0,0,0,1.2324,1.2148,3.5342,3.5342,0,0,0,1.7373.4317A3.714,3.714,0,0,0,288.2305,25.5244Z" transform="translate(-0.021 -0.2813)" style="fill:#9aa8ba"></path><path d="M293.5215,16.2358a.8642.8642,0,0,1,.6123-1.476.8633.8633,0,0,1,.6211.2524.8482.8482,0,0,1,0,1.2236.8609.8609,0,0,1-.6211.252A.8316.8316,0,0,1,293.5215,16.2358ZM293.45,18.36h1.3857V27H293.45Z" transform="translate(-0.021 -0.2813)" style="fill:#9aa8ba"></path><path d="M298.5977,27.0273a4.9026,4.9026,0,0,1-1.5127-.6035v-1.17a6.7927,6.7927,0,0,0,3.2949.918,3.1142,3.1142,0,0,0,1.61-.3145,1.0464,1.0464,0,0,0,.4952-.9453,1.22,1.22,0,0,0-.2159-.7646,1.7785,1.7785,0,0,0-.72-.4952,12.7266,12.7266,0,0,0-1.5664-.5039,9.1751,9.1751,0,0,1-1.665-.6035,2.4173,2.4173,0,0,1-.9454-.8008,2.1985,2.1985,0,0,1-.3232-1.2421,2.0143,2.0143,0,0,1,.9443-1.7911,4.5106,4.5106,0,0,1,2.5118-.6211,7.9242,7.9242,0,0,1,1.5927.1534,4.6118,4.6118,0,0,1,1.251.4228v1.17a4.9231,4.9231,0,0,0-1.26-.4589,6.7751,6.7751,0,0,0-1.53-.1709,3.2733,3.2733,0,0,0-1.584.3061,1.0507,1.0507,0,0,0-.54.99,1.1807,1.1807,0,0,0,.1885.72,1.62,1.62,0,0,0,.7022.459,15.8357,15.8357,0,0,0,1.6474.5136,5.5238,5.5238,0,0,1,2.2588,1.0528,2.18,2.18,0,0,1,.6387,1.665,2.03,2.03,0,0,1-.8545,1.7275,4.3869,4.3869,0,0,1-2.6016.63A7.5,7.5,0,0,1,298.5977,27.0273Z" transform="translate(-0.021 -0.2813)" style="fill:#9aa8ba"></path><path d="M306.9414,26.55a2.8863,2.8863,0,0,1-.6758-2.0518V19.44h-1.35V18.36h1.35V15.7681h1.3867V18.36H309.83v1.08h-2.1778v5.0943a1.7889,1.7889,0,0,0,.3594,1.2685,1.82,1.82,0,0,0,1.3145.3692,2.6061,2.6061,0,0,0,.99-.2158V27.09a5.1645,5.1645,0,0,1-1.4766.18A2.4709,2.4709,0,0,1,306.9414,26.55Z" transform="translate(-0.021 -0.2813)" style="fill:#9aa8ba"></path><g style="clip-path:url(#be746657-e76a-4692-9a57-33335b4d0979)"><g style="opacity:0.009994509629905224"><path d="M.021.3047A.0214.0214,0,0,1,.0425.2812.0211.0211,0,0,1,.064.3047.0211.0211,0,0,1,.042.3271.0209.0209,0,0,1,.021.3047Z" transform="translate(-0.021 -0.2813)" style="fill:#fff"></path></g></g></svg>